<svg xmlns="http://www.w3.org/2000/svg" xmlns:xlink="http://www.w3.org/1999/xlink" width="500" zoomAndPan="magnify" viewBox="0 0 375 374.999991" height="500" preserveAspectRatio="xMidYMid meet" version="1.0"><defs><clipPath id="c74f9cdba4"><path d="M 0 44 L 375 44 L 375 340.6875 L 0 340.6875 Z M 0 44 " clip-rule="nonzero"/></clipPath></defs><path fill="#100f0d" d="M 3.347656 192.429688 C 3.347656 192.429688 3.289062 192.988281 3.183594 194.039062 C 3.101562 195.085938 3.046875 196.660156 3.238281 198.636719 C 3.421875 200.625 3.914062 203.019531 4.855469 205.65625 C 5.785156 208.289062 7.207031 211.152344 9.214844 213.972656 C 11.191406 216.8125 13.738281 219.632812 16.914062 222.066406 C 17.6875 222.648438 18.382812 223.292969 19.257812 223.855469 C 20.125 224.421875 21 225 21.886719 225.582031 C 23.703125 226.605469 25.539062 227.675781 27.523438 228.53125 C 31.433594 230.351562 35.652344 231.8125 40.015625 232.882812 C 41.09375 233.191406 42.203125 233.402344 43.300781 233.664062 L 45.023438 234.042969 L 46.675781 234.308594 C 48.882812 234.652344 51.09375 234.996094 53.308594 235.34375 C 53.867188 235.421875 54.410156 235.523438 54.972656 235.589844 L 56.6875 235.707031 L 60.105469 235.953125 C 61.238281 236.027344 62.375 236.109375 63.507812 236.1875 C 64.070312 236.222656 64.636719 236.277344 65.203125 236.292969 L 66.878906 236.269531 C 69.113281 236.226562 71.335938 236.179688 73.523438 236.136719 L 75.160156 236.101562 L 76.777344 235.945312 C 77.855469 235.839844 78.921875 235.730469 79.976562 235.625 C 82.089844 235.382812 84.179688 235.246094 86.191406 234.882812 C 88.203125 234.5 90.164062 234.128906 92.078125 233.765625 C 93.03125 233.582031 93.976562 233.398438 94.898438 233.222656 C 95.824219 233.019531 96.710938 232.722656 97.59375 232.488281 C 99.355469 231.988281 101.054688 231.503906 102.679688 231.039062 C 103.496094 230.800781 104.292969 230.574219 105.070312 230.347656 C 105.828125 230.058594 106.566406 229.769531 107.289062 229.496094 C 108.726562 228.933594 110.089844 228.40625 111.375 227.910156 C 112.644531 227.390625 113.863281 226.996094 114.933594 226.476562 C 116 225.953125 116.988281 225.476562 117.867188 225.046875 C 121.40625 223.304688 123.390625 222.28125 123.390625 222.28125 C 123.390625 222.28125 121.273438 223.046875 117.613281 224.433594 C 116.699219 224.789062 115.691406 225.179688 114.59375 225.601562 C 113.496094 226.027344 112.246094 226.316406 110.949219 226.722656 C 109.644531 227.105469 108.257812 227.511719 106.796875 227.945312 C 106.066406 228.160156 105.320312 228.382812 104.554688 228.605469 C 103.773438 228.78125 102.976562 228.957031 102.160156 229.140625 C 100.53125 229.5 98.839844 229.871094 97.082031 230.257812 C 96.203125 230.441406 95.324219 230.675781 94.40625 230.816406 C 93.488281 230.949219 92.558594 231.089844 91.613281 231.226562 C 89.726562 231.503906 87.792969 231.785156 85.8125 232.074219 C 83.835938 232.351562 81.785156 232.367188 79.71875 232.554688 C 78.679688 232.636719 77.640625 232.707031 76.589844 232.789062 L 75.007812 232.902344 L 73.410156 232.890625 C 71.277344 232.875 69.121094 232.859375 66.945312 232.851562 L 65.308594 232.851562 C 64.769531 232.824219 64.226562 232.769531 63.6875 232.734375 C 62.601562 232.648438 61.511719 232.558594 60.425781 232.472656 L 57.15625 232.222656 L 55.519531 232.09375 C 54.96875 232.023438 54.410156 231.921875 53.859375 231.835938 C 51.644531 231.488281 49.433594 231.128906 47.234375 230.78125 L 45.578125 230.53125 L 44.042969 230.203125 C 42.976562 229.964844 41.902344 229.769531 40.859375 229.484375 C 36.652344 228.46875 32.605469 227.148438 28.835938 225.5625 C 26.933594 224.8125 25.167969 223.839844 23.433594 222.941406 C 22.601562 222.445312 21.78125 221.960938 20.972656 221.476562 C 20.152344 221.027344 19.367188 220.371094 18.582031 219.835938 C 15.523438 217.726562 13.003906 215.195312 10.9375 212.671875 C 6.78125 207.582031 4.78125 202.300781 3.984375 198.523438 C 3.605469 196.617188 3.4375 195.097656 3.386719 194.042969 C 3.363281 192.992188 3.347656 192.429688 3.347656 192.429688 " fill-opacity="1" fill-rule="nonzero"/><path fill="#100f0d" d="M 101.554688 106.550781 C 100.6875 107.09375 99.742188 107.675781 98.738281 108.296875 C 96.730469 109.558594 94.425781 110.917969 92.0625 112.640625 C 90.871094 113.472656 89.621094 114.339844 88.328125 115.242188 C 87.054688 116.164062 85.78125 117.1875 84.457031 118.203125 C 81.769531 120.207031 79.109375 122.539062 76.328125 124.914062 C 73.667969 127.421875 70.820312 129.921875 68.191406 132.730469 C 65.472656 135.449219 62.933594 138.417969 60.34375 141.34375 C 57.878906 144.367188 55.421875 147.40625 53.183594 150.53125 C 52.035156 152.070312 50.902344 153.601562 49.886719 155.1875 C 48.84375 156.753906 47.785156 158.28125 46.804688 159.824219 C 44.875 162.929688 42.984375 165.914062 41.386719 168.851562 C 40.570312 170.3125 39.773438 171.730469 39.003906 173.101562 C 38.277344 174.5 37.585938 175.847656 36.910156 177.144531 C 35.539062 179.714844 34.425781 182.152344 33.417969 184.296875 C 32.398438 186.4375 31.554688 188.316406 30.882812 189.875 C 29.515625 192.980469 28.773438 194.78125 28.773438 194.78125 C 28.773438 194.78125 29.75 193.097656 31.375 190.121094 C 32.175781 188.625 33.175781 186.816406 34.367188 184.78125 C 35.554688 182.746094 36.839844 180.421875 38.339844 177.933594 C 39.820312 175.433594 41.425781 172.742188 43.203125 169.9375 C 44.921875 167.105469 46.910156 164.222656 48.875 161.195312 C 49.886719 159.695312 50.972656 158.214844 52.039062 156.691406 C 53.101562 155.164062 54.203125 153.648438 55.355469 152.148438 C 57.578125 149.070312 60.058594 146.128906 62.46875 143.132812 C 64.992188 140.234375 67.472656 137.289062 70.125 134.589844 C 72.675781 131.785156 75.394531 129.238281 77.96875 126.707031 C 80.664062 124.324219 83.160156 121.867188 85.742188 119.792969 C 87.011719 118.730469 88.246094 117.691406 89.441406 116.691406 C 90.664062 115.726562 91.855469 114.796875 92.992188 113.90625 C 95.246094 112.089844 97.410156 110.546875 99.304688 109.140625 C 100.253906 108.441406 101.140625 107.789062 101.964844 107.183594 C 102.808594 106.609375 103.582031 106.082031 104.28125 105.605469 C 107.078125 103.691406 108.660156 102.566406 108.660156 102.566406 C 108.660156 102.566406 106.960938 103.488281 104.003906 105.15625 C 103.261719 105.582031 102.445312 106.046875 101.554688 106.550781 " fill-opacity="1" fill-rule="nonzero"/><g clip-path="url(#c74f9cdba4)"><path fill="#100f0d" d="M 119.511719 191.914062 C 119.542969 192.808594 119.574219 193.703125 119.605469 194.601562 C 119.683594 195.632812 119.792969 196.390625 119.882812 197.304688 C 119.925781 197.679688 119.972656 198.0625 120.011719 198.441406 C 86.476562 216.835938 52.058594 222.023438 32.308594 217.175781 C 32.355469 216.722656 32.410156 216.113281 32.488281 215.324219 C 32.589844 213.5 33.070312 210.96875 33.71875 207.753906 C 34.171875 206.160156 34.554688 204.367188 35.1875 202.476562 C 35.851562 200.59375 36.484375 198.527344 37.425781 196.417969 C 39.140625 192.140625 41.441406 187.445312 44.269531 182.484375 C 44.621094 181.867188 44.976562 181.238281 45.335938 180.605469 C 45.652344 180.066406 46.109375 179.382812 46.492188 178.769531 C 47.300781 177.507812 48.121094 176.226562 48.957031 174.917969 C 50.652344 172.328125 52.289062 169.546875 54.1875 166.882812 C 58.105469 161.671875 61.921875 155.957031 66.753906 150.675781 C 67.917969 149.320312 69.085938 147.957031 70.261719 146.578125 C 70.859375 145.898438 71.425781 145.183594 72.054688 144.527344 L 73.988281 142.578125 C 76.574219 139.972656 79.191406 137.339844 81.835938 134.683594 C 87.296875 129.519531 93.058594 124.582031 99.121094 119.960938 C 105.207031 115.386719 111.492188 111.0625 117.894531 107.148438 C 124.339844 103.261719 130.761719 99.707031 137.199219 96.5 C 143.582031 93.332031 149.960938 90.617188 156.152344 88.546875 C 162.347656 86.449219 168.382812 85.03125 174.046875 84.269531 C 175.46875 84.019531 176.851562 83.902344 178.203125 83.785156 C 179.5625 83.667969 180.878906 83.492188 182.183594 83.5 C 183.484375 83.460938 184.75 83.425781 185.984375 83.390625 C 187.214844 83.441406 188.40625 83.484375 189.570312 83.527344 C 190.148438 83.554688 190.71875 83.574219 191.28125 83.601562 C 191.839844 83.660156 192.386719 83.722656 192.929688 83.785156 C 194.003906 83.90625 195.046875 84.03125 196.046875 84.140625 C 198.03125 84.457031 199.835938 84.863281 201.480469 85.164062 C 203.089844 85.609375 204.53125 86.007812 205.785156 86.347656 C 207.050781 86.664062 208.050781 87.15625 208.902344 87.4375 C 210.585938 88.070312 211.484375 88.402344 211.484375 88.402344 C 211.484375 88.402344 210.601562 88.027344 208.949219 87.324219 C 208.105469 87.003906 207.121094 86.460938 205.871094 86.089844 C 204.628906 85.691406 203.199219 85.230469 201.597656 84.714844 C 199.953125 84.347656 198.148438 83.882812 196.152344 83.492188 C 195.148438 83.339844 194.101562 83.179688 193.019531 83.019531 C 192.472656 82.9375 191.921875 82.855469 191.355469 82.773438 C 190.796875 82.726562 190.21875 82.6875 189.632812 82.640625 C 188.460938 82.554688 187.25 82.464844 186.003906 82.371094 C 184.753906 82.363281 183.46875 82.355469 182.152344 82.34375 C 180.832031 82.292969 179.476562 82.421875 178.085938 82.492188 C 176.695312 82.570312 175.265625 82.636719 173.851562 82.847656 C 168.101562 83.476562 161.914062 84.78125 155.582031 86.757812 C 149.230469 88.71875 142.730469 91.304688 136.15625 94.375 C 134.507812 95.125 132.898438 95.941406 131.25 96.734375 C 129.589844 97.5625 127.984375 98.445312 126.332031 99.308594 C 124.679688 100.160156 123.039062 101.058594 121.414062 102.003906 C 119.789062 102.949219 118.128906 103.855469 116.5 104.835938 C 109.980469 108.722656 103.570312 113.023438 97.339844 117.589844 C 91.144531 122.199219 85.1875 127.1875 79.621094 132.328125 C 76.941406 135.035156 74.285156 137.714844 71.660156 140.363281 L 69.703125 142.347656 C 69.070312 143.023438 68.492188 143.742188 67.886719 144.4375 C 66.695312 145.84375 65.507812 147.234375 64.335938 148.613281 C 59.460938 153.976562 55.542969 159.867188 51.566406 165.207031 L 50.835938 166.214844 L 50.199219 167.261719 C 49.773438 167.957031 49.355469 168.644531 48.9375 169.332031 C 48.105469 170.695312 47.285156 172.042969 46.476562 173.367188 C 45.667969 174.695312 44.875 175.992188 44.09375 177.273438 C 43.699219 177.933594 43.335938 178.488281 42.921875 179.226562 C 42.570312 179.878906 42.222656 180.523438 41.882812 181.160156 C 39.132812 186.269531 36.816406 191.089844 35.226562 195.5625 C 34.351562 197.761719 33.773438 199.914062 33.167969 201.871094 C 32.589844 203.839844 32.265625 205.710938 31.859375 207.359375 C 31.292969 210.746094 30.949219 213.433594 30.953125 215.210938 C 30.921875 215.847656 30.902344 216.367188 30.882812 216.785156 C 27.125 215.734375 23.957031 214.289062 21.5 212.484375 C 16.636719 201.15625 15.699219 188.289062 17.722656 176.089844 C 19.933594 162.8125 25.480469 150.265625 32.449219 138.757812 C 37.621094 130.207031 43.582031 122.175781 49.726562 114.289062 C 55.867188 107.871094 62.667969 101.273438 70.128906 94.527344 C 93.203125 73.671875 120.964844 58.222656 148.316406 51.035156 C 172.609375 44.652344 193.152344 46.148438 201.9375 54.9375 C 204.230469 57.238281 206.183594 59.683594 207.816406 62.269531 C 211.296875 68.4375 213.253906 75.617188 213.390625 82.679688 C 213.605469 93.894531 210.097656 104.738281 204.984375 114.820312 C 203.6875 117.273438 202.261719 119.757812 200.695312 122.273438 L 200.695312 122.253906 C 200.695312 122.253906 200.195312 122.175781 199.230469 122.027344 C 198.261719 121.882812 196.835938 121.621094 194.902344 121.476562 C 191.070312 121.113281 185.414062 120.886719 178.304688 121.953125 C 171.230469 123.035156 162.6875 125.453125 153.960938 130.4375 C 145.257812 135.367188 136.425781 143.101562 129.960938 153.730469 C 126.742188 159.027344 124.074219 164.96875 122.191406 171.398438 C 120.414062 177.839844 119.328125 184.769531 119.511719 191.914062 Z M 153.519531 167.6875 C 156.753906 165.671875 160.519531 164.566406 164.332031 164.472656 C 161.328125 167.261719 158.179688 170.066406 154.910156 172.886719 C 154.347656 171.148438 153.882812 169.417969 153.519531 167.6875 Z M 152.628906 160.265625 C 152.59375 158.464844 152.691406 156.699219 152.894531 154.976562 C 156.625 144.019531 164.101562 135 173.042969 131.914062 C 180.730469 129.257812 188.96875 127.785156 197.152344 127.664062 C 189.351562 138.976562 178.863281 150.84375 165.816406 163.082031 C 161.433594 162.894531 157.015625 163.984375 153.234375 166.210938 C 152.882812 164.203125 152.667969 162.210938 152.628906 160.265625 Z M 181.296875 214.570312 C 182.484375 213.617188 184.230469 212.214844 186.394531 210.304688 C 187.488281 209.375 188.664062 208.296875 189.929688 207.125 C 191.214844 205.964844 192.570312 204.679688 193.988281 203.269531 C 196.867188 200.492188 199.972656 197.222656 203.238281 193.539062 C 206.464844 189.816406 209.832031 185.675781 213.183594 181.140625 C 215.324219 178.1875 217.46875 175.066406 219.570312 171.808594 C 219.886719 171.921875 220.363281 172.089844 220.988281 172.3125 C 222.234375 172.742188 224.039062 173.402344 226.308594 174.285156 C 228.582031 175.167969 231.332031 176.289062 234.4375 177.675781 C 237.550781 179.058594 241.015625 180.71875 244.726562 182.648438 C 248.449219 184.570312 252.390625 186.820312 256.484375 189.320312 C 260.574219 191.816406 264.773438 194.648438 268.996094 197.726562 C 277.445312 203.894531 285.957031 211.171875 293.707031 219.191406 C 301.476562 227.191406 308.503906 235.894531 314.378906 244.527344 C 317.328125 248.835938 319.976562 253.140625 322.328125 257.304688 C 324.679688 261.472656 326.8125 265.457031 328.398438 269.261719 C 330.015625 273.066406 331.199219 276.660156 331.949219 279.890625 C 332.714844 283.125 333.058594 285.992188 333.140625 288.335938 C 333.25 290.6875 333.042969 292.507812 332.898438 293.742188 C 332.792969 294.378906 332.710938 294.855469 332.660156 295.164062 C 331.140625 295.308594 329.613281 295.40625 328.078125 295.429688 C 319.574219 295.5625 311.027344 294.042969 302.636719 291.949219 C 285.820312 287.734375 269.484375 281.550781 254.308594 273.722656 C 239.105469 265.941406 225.050781 256.546875 212.5 246.207031 C 200.582031 236.425781 190.046875 225.769531 180.984375 214.820312 C 181.09375 214.738281 181.179688 214.664062 181.296875 214.570312 Z M 222.96875 166.335938 C 226.109375 161.046875 229.074219 155.40625 231.773438 149.535156 C 234.085938 144.585938 236.183594 139.417969 237.917969 134.109375 C 238.019531 134.140625 238.101562 134.167969 238.214844 134.195312 C 239.21875 134.523438 240.726562 134.9375 242.652344 135.605469 C 246.527344 136.875 252.160156 138.917969 259.128906 141.972656 C 266.101562 145.027344 274.359375 149.21875 283.390625 154.777344 C 292.40625 160.351562 302.144531 167.355469 311.957031 175.949219 C 321.746094 184.558594 331.625 194.742188 340.746094 206.574219 C 345.308594 212.480469 349.683594 218.792969 353.761719 225.484375 C 357.761719 232.175781 361.777344 239.214844 364.535156 246.746094 C 365.910156 250.511719 366.980469 254.421875 367.449219 258.414062 C 367.929688 262.386719 367.769531 266.488281 366.769531 270.320312 C 366.179688 272.699219 365.230469 274.960938 364.015625 277.082031 C 364.058594 276.785156 364.097656 276.5 364.136719 276.1875 C 364.261719 275.21875 364.4375 274.164062 364.496094 273.042969 C 364.6875 270.789062 364.765625 268.25 364.660156 265.480469 C 364.632812 264.789062 364.601562 264.082031 364.578125 263.363281 C 364.503906 262.640625 364.4375 261.90625 364.367188 261.160156 C 364.3125 260.414062 364.21875 259.660156 364.082031 258.886719 C 363.933594 258.09375 363.878906 257.375 363.652344 256.5 C 363.265625 254.988281 362.867188 253.441406 362.460938 251.863281 C 361.960938 250.273438 361.335938 248.65625 360.753906 247.011719 C 359.464844 243.792969 357.976562 240.570312 356.246094 237.414062 C 355.433594 235.796875 354.425781 234.265625 353.53125 232.71875 C 352.582031 231.179688 351.730469 229.597656 350.695312 228.085938 C 348.683594 225.035156 346.742188 221.957031 344.601562 219.085938 C 343.558594 217.640625 342.546875 216.179688 341.492188 214.777344 C 340.414062 213.394531 339.347656 212.03125 338.300781 210.6875 C 336.261719 207.964844 334.042969 205.527344 332.046875 203.132812 C 331.058594 201.925781 330.015625 200.816406 329.011719 199.75 C 328.015625 198.675781 327.046875 197.640625 326.125 196.644531 C 325.210938 195.632812 324.265625 194.734375 323.367188 193.878906 C 322.476562 193.023438 321.628906 192.207031 320.832031 191.4375 C 320.027344 190.683594 319.308594 189.9375 318.582031 189.320312 C 317.859375 188.695312 317.191406 188.125 316.589844 187.609375 C 314.179688 185.550781 312.804688 184.375 312.804688 184.375 C 312.804688 184.375 314.128906 185.605469 316.457031 187.757812 C 317.039062 188.292969 317.679688 188.890625 318.375 189.539062 C 319.074219 190.1875 319.761719 190.957031 320.53125 191.746094 C 322.039062 193.359375 323.84375 195.066406 325.597656 197.132812 C 326.492188 198.152344 327.425781 199.214844 328.382812 200.3125 C 329.355469 201.40625 330.355469 202.535156 331.300781 203.765625 C 333.214844 206.207031 335.347656 208.6875 337.296875 211.457031 C 338.300781 212.820312 339.316406 214.210938 340.34375 215.617188 C 341.351562 217.035156 342.308594 218.515625 343.308594 219.984375 C 345.34375 222.894531 347.175781 225.996094 349.0625 229.050781 C 350.03125 230.558594 350.847656 232.191406 351.746094 233.75 C 352.613281 235.347656 353.542969 236.851562 354.285156 238.449219 C 355.917969 241.570312 357.332031 244.753906 358.515625 247.847656 C 359.035156 249.417969 359.597656 250.921875 360.058594 252.457031 C 360.441406 254.042969 360.8125 255.597656 361.175781 257.109375 C 361.332031 257.742188 361.398438 258.558594 361.515625 259.261719 C 361.636719 259.980469 361.710938 260.699219 361.75 261.414062 C 361.808594 262.125 361.863281 262.832031 361.914062 263.515625 C 361.933594 264.210938 361.949219 264.890625 361.964844 265.554688 C 362.027344 268.214844 361.886719 270.65625 361.703125 272.800781 C 361.652344 273.878906 361.476562 274.871094 361.359375 275.789062 C 361.296875 276.25 361.234375 276.695312 361.179688 277.113281 C 361.09375 277.515625 361.011719 277.898438 360.933594 278.261719 C 360.78125 278.992188 360.636719 279.636719 360.519531 280.203125 C 360.332031 280.792969 360.167969 281.285156 360.042969 281.691406 C 359.800781 282.429688 359.667969 282.839844 359.648438 282.90625 C 357.425781 285.253906 354.847656 287.320312 352.050781 289.019531 C 348.515625 291.160156 344.625 292.8125 340.601562 293.835938 C 339.128906 294.210938 337.632812 294.492188 336.128906 294.730469 C 336.15625 294.550781 336.183594 294.382812 336.214844 294.175781 C 336.359375 292.796875 336.566406 290.761719 336.417969 288.203125 C 336.300781 285.644531 335.894531 282.558594 335.046875 279.140625 C 334.214844 275.722656 332.933594 271.972656 331.214844 268.046875 C 329.515625 264.097656 327.296875 260.046875 324.863281 255.847656 C 322.421875 251.644531 319.691406 247.300781 316.644531 242.964844 C 310.582031 234.269531 303.363281 225.53125 295.410156 217.515625 C 287.472656 209.484375 278.789062 202.222656 270.179688 196.082031 C 265.878906 193.015625 261.605469 190.207031 257.445312 187.730469 C 253.285156 185.253906 249.285156 183.027344 245.503906 181.128906 C 241.738281 179.21875 238.226562 177.585938 235.070312 176.230469 C 231.921875 174.863281 229.140625 173.769531 226.832031 172.902344 C 224.519531 172.023438 222.699219 171.382812 221.453125 170.96875 C 221 170.8125 220.648438 170.695312 220.351562 170.59375 C 221.234375 169.203125 222.105469 167.789062 222.96875 166.335938 Z M 372.816406 258.207031 C 371.492188 251.199219 369.359375 245.984375 367.792969 242.535156 C 367.011719 240.800781 366.316406 239.515625 365.84375 238.660156 C 365.378906 237.796875 365.136719 237.351562 365.136719 237.351562 C 365.136719 237.351562 365.363281 237.804688 365.796875 238.683594 C 366.234375 239.558594 366.878906 240.867188 367.59375 242.621094 C 369.03125 246.113281 370.929688 251.378906 372.0625 258.347656 C 373.195312 265.277344 373.5 273.964844 371.492188 283.535156 C 369.492188 293.066406 364.976562 303.414062 357.21875 312.542969 C 353.398438 317.136719 348.710938 321.300781 343.425781 324.929688 C 340.734375 326.667969 337.90625 328.351562 334.949219 329.71875 C 334.242188 330.089844 333.417969 330.390625 332.648438 330.734375 L 331.472656 331.230469 L 331.175781 331.355469 C 331.140625 331.367188 331.039062 331.414062 331.0625 331.398438 L 330.914062 331.449219 L 330.316406 331.648438 C 328.722656 332.183594 327.113281 332.722656 325.496094 333.261719 C 318.949219 335.164062 312.023438 336.542969 304.84375 336.984375 C 303.945312 337.058594 303.054688 337.132812 302.148438 337.210938 C 301.253906 337.277344 300.339844 337.25 299.4375 337.273438 C 297.621094 337.296875 295.792969 337.316406 293.957031 337.339844 C 290.296875 337.109375 286.570312 337.0625 282.90625 336.519531 C 279.242188 336.203125 275.460938 335.402344 271.675781 334.722656 C 268.089844 333.8125 264.257812 332.960938 260.558594 331.933594 C 253.136719 329.769531 245.691406 327.328125 238.402344 324.296875 C 236.574219 323.546875 234.75 322.789062 232.910156 322.035156 C 231.101562 321.238281 229.308594 320.375 227.503906 319.546875 C 225.707031 318.6875 223.875 317.914062 222.105469 316.988281 L 216.773438 314.25 C 213.183594 312.476562 209.753906 310.433594 206.234375 308.523438 C 202.738281 306.558594 199.285156 304.40625 195.8125 302.359375 C 182.289062 293.949219 170 283.417969 159.609375 271.605469 C 149.28125 259.726562 140.757812 246.601562 134.460938 232.988281 C 131.363281 226.234375 128.613281 219.261719 126.542969 212.40625 C 126.066406 210.675781 125.59375 208.949219 125.117188 207.238281 C 124.765625 205.527344 124.414062 203.828125 124.0625 202.136719 L 123.800781 200.863281 L 123.644531 199.539062 C 123.539062 198.660156 123.429688 197.785156 123.328125 196.910156 C 123.230469 196.066406 123.09375 195.082031 123.03125 194.371094 C 122.996094 193.519531 122.960938 192.671875 122.921875 191.828125 C 122.671875 185.046875 123.632812 178.4375 125.265625 172.261719 C 127 166.109375 129.496094 160.390625 132.523438 155.277344 C 135.589844 150.171875 139.148438 145.742188 143.023438 141.921875 C 146.882812 138.121094 151.03125 135.023438 155.191406 132.546875 C 163.519531 127.578125 171.761719 125.070312 178.617188 123.882812 C 185.5 122.722656 191.050781 122.753906 194.753906 123.019531 C 196.605469 123.105469 198.054688 123.328125 199.023438 123.449219 C 199.382812 123.496094 199.65625 123.53125 199.882812 123.5625 C 199.621094 123.96875 199.351562 124.382812 199.082031 124.796875 L 199.085938 124.78125 C 199.085938 124.78125 198.5625 124.632812 197.546875 124.34375 C 196.515625 124.0625 194.882812 123.726562 192.816406 123.496094 C 188.664062 123.105469 182.414062 123.253906 174.96875 125.652344 C 171.285156 126.871094 167.234375 128.667969 163.4375 131.46875 C 159.566406 134.304688 155.984375 138.226562 153.570312 143.242188 C 151.160156 148.234375 149.824219 154.101562 149.867188 160.257812 C 149.910156 166.507812 151.464844 172.890625 154.019531 179.078125 C 156.566406 185.285156 160.046875 191.304688 163.980469 197.242188 C 167.851562 203.175781 172.195312 209.191406 176.917969 215.078125 C 186.398438 226.863281 197.535156 238.417969 210.304688 248.886719 C 223.058594 259.351562 237.335938 268.851562 252.777344 276.71875 C 268.191406 284.632812 284.773438 290.871094 301.855469 295.113281 C 310.390625 297.21875 319.207031 298.792969 328.132812 298.640625 C 332.582031 298.566406 337.050781 298.03125 341.378906 296.929688 C 345.742188 295.800781 349.878906 294.035156 353.695312 291.710938 C 357.492188 289.371094 360.953125 286.457031 363.734375 282.957031 C 366.527344 279.488281 368.628906 275.382812 369.6875 271.117188 C 370.796875 266.769531 370.914062 262.335938 370.378906 258.054688 C 369.847656 253.773438 368.6875 249.660156 367.234375 245.742188 C 365.769531 241.824219 364.003906 238.085938 362.097656 234.496094 C 361.148438 232.6875 360.125 230.945312 359.164062 229.214844 C 358.164062 227.476562 357.117188 225.753906 356.097656 224.050781 C 351.917969 217.296875 347.449219 210.925781 342.796875 204.96875 C 333.492188 193.0625 323.460938 182.789062 313.460938 174.214844 C 303.460938 165.628906 293.546875 158.660156 284.394531 153.132812 C 275.222656 147.617188 266.851562 143.46875 259.785156 140.464844 C 252.722656 137.449219 247.023438 135.453125 243.105469 134.21875 C 241.15625 133.5625 239.632812 133.160156 238.617188 132.84375 C 238.515625 132.8125 238.441406 132.792969 238.351562 132.765625 C 238.515625 132.25 238.691406 131.738281 238.84375 131.222656 C 240.738281 124.898438 241.960938 118.335938 242.21875 111.800781 C 242.484375 105.265625 241.722656 98.816406 240.25 92.800781 C 238.789062 86.773438 236.582031 81.152344 233.855469 76.171875 C 231.152344 71.1875 227.964844 66.832031 224.609375 63.203125 C 221.253906 59.582031 217.765625 56.65625 214.417969 54.464844 C 211.085938 52.25 207.96875 50.667969 205.339844 49.542969 C 202.703125 48.441406 200.566406 47.75 199.097656 47.332031 C 197.621094 46.929688 196.835938 46.71875 196.835938 46.71875 C 196.835938 46.71875 197.605469 46.96875 199.0625 47.445312 C 200.5 47.933594 202.589844 48.746094 205.164062 49.9375 C 207.730469 51.160156 210.746094 52.847656 213.933594 55.164062 C 217.125 57.46875 220.457031 60.441406 223.648438 64.070312 C 226.820312 67.714844 229.808594 72.0625 232.304688 76.992188 C 234.789062 81.925781 236.855469 87.417969 238.175781 93.289062 C 239.507812 99.160156 240.140625 105.390625 239.777344 111.683594 C 239.421875 117.976562 238.132812 124.300781 236.285156 130.457031 C 234.417969 136.625 231.988281 142.59375 229.257812 148.363281 C 226.566406 154.132812 223.617188 159.671875 220.492188 164.867188 C 217.390625 170.078125 214.171875 174.976562 210.917969 179.480469 C 207.636719 183.972656 204.347656 188.066406 201.1875 191.746094 C 197.972656 195.378906 194.996094 198.683594 192.195312 201.457031 C 190.8125 202.867188 189.5 204.160156 188.246094 205.324219 C 187.015625 206.496094 185.871094 207.574219 184.8125 208.5 C 182.730469 210.394531 181.035156 211.863281 179.863281 212.84375 C 179.746094 212.9375 179.660156 213.011719 179.554688 213.097656 C 179.53125 213.070312 179.503906 213.042969 179.480469 213.011719 C 178.066406 211.265625 176.703125 209.511719 175.367188 207.757812 C 175.714844 207.503906 176.117188 207.207031 176.582031 206.867188 C 177.402344 206.257812 178.402344 205.523438 179.550781 204.675781 C 180.128906 204.25 180.738281 203.800781 181.382812 203.324219 C 182 202.792969 182.648438 202.234375 183.320312 201.644531 C 184.671875 200.476562 186.132812 199.203125 187.679688 197.863281 C 188.46875 197.214844 189.1875 196.457031 189.9375 195.699219 C 190.6875 194.9375 191.453125 194.167969 192.230469 193.375 C 193.785156 191.796875 195.433594 190.214844 196.886719 188.394531 C 198.390625 186.632812 199.921875 184.839844 201.453125 183.046875 C 202.851562 181.152344 204.25 179.257812 205.628906 177.390625 C 207.054688 175.566406 208.222656 173.605469 209.40625 171.746094 C 210.554688 169.867188 211.796875 168.128906 212.734375 166.335938 C 213.6875 164.558594 214.585938 162.878906 215.417969 161.328125 C 215.835938 160.550781 216.234375 159.808594 216.613281 159.105469 C 216.933594 158.367188 217.242188 157.675781 217.535156 157.019531 C 218.113281 155.710938 218.617188 154.574219 219.03125 153.636719 C 219.863281 151.765625 220.335938 150.695312 220.335938 150.695312 C 220.335938 150.695312 219.816406 151.742188 218.902344 153.578125 C 218.449219 154.496094 217.898438 155.609375 217.257812 156.886719 C 216.941406 157.519531 216.605469 158.199219 216.253906 158.914062 C 215.839844 159.605469 215.414062 160.332031 214.96875 161.082031 C 214.070312 162.589844 213.101562 164.21875 212.074219 165.945312 C 211.070312 167.679688 209.757812 169.351562 208.539062 171.164062 C 207.285156 172.957031 206.046875 174.84375 204.550781 176.585938 C 203.105469 178.367188 201.648438 180.179688 200.183594 181.988281 C 198.597656 183.695312 197.011719 185.394531 195.453125 187.066406 C 193.945312 188.789062 192.25 190.28125 190.65625 191.761719 C 189.863281 192.496094 189.078125 193.226562 188.3125 193.9375 C 187.539062 194.648438 186.804688 195.363281 186.011719 195.949219 C 184.464844 197.179688 183 198.34375 181.652344 199.417969 C 180.980469 199.953125 180.332031 200.464844 179.71875 200.957031 C 179.054688 201.398438 178.429688 201.824219 177.832031 202.222656 C 176.648438 203.015625 175.617188 203.707031 174.765625 204.28125 C 174.25 204.628906 173.804688 204.925781 173.429688 205.175781 C 171.050781 201.957031 168.785156 198.726562 166.644531 195.484375 C 166.3125 194.984375 165.992188 194.488281 165.664062 193.992188 C 166.316406 193.496094 167.4375 192.644531 168.976562 191.484375 C 170.238281 190.558594 171.738281 189.339844 173.445312 187.910156 C 174.300781 187.203125 175.210938 186.453125 176.167969 185.660156 C 177.09375 184.835938 178.066406 183.964844 179.082031 183.054688 C 180.082031 182.136719 181.160156 181.21875 182.214844 180.199219 C 183.265625 179.179688 184.347656 178.117188 185.460938 177.027344 C 186.59375 175.960938 187.695312 174.800781 188.804688 173.601562 C 189.921875 172.40625 191.085938 171.210938 192.222656 169.949219 C 194.4375 167.375 196.789062 164.773438 198.964844 161.949219 C 201.234375 159.203125 203.3125 156.234375 205.464844 153.328125 C 207.464844 150.3125 209.550781 147.359375 211.351562 144.289062 C 213.265625 141.285156 214.914062 138.195312 216.570312 135.242188 C 217.367188 133.753906 218.097656 132.253906 218.835938 130.800781 C 219.582031 129.355469 220.289062 127.929688 220.90625 126.503906 C 221.550781 125.089844 222.171875 123.714844 222.773438 122.386719 C 223.367188 121.054688 223.859375 119.734375 224.375 118.484375 C 224.875 117.226562 225.359375 116.027344 225.820312 114.882812 C 226.230469 113.71875 226.621094 112.613281 226.988281 111.582031 C 227.738281 109.515625 228.367188 107.707031 228.800781 106.1875 C 229.726562 103.175781 230.257812 101.453125 230.257812 101.453125 C 230.257812 101.453125 229.6875 103.164062 228.683594 106.148438 C 228.214844 107.65625 227.539062 109.449219 226.738281 111.492188 C 226.347656 112.511719 225.933594 113.601562 225.488281 114.75 C 225.003906 115.878906 224.492188 117.070312 223.964844 118.308594 C 223.417969 119.542969 222.890625 120.847656 222.269531 122.160156 C 221.636719 123.46875 220.980469 124.824219 220.304688 126.21875 C 219.65625 127.617188 218.917969 129.015625 218.136719 130.441406 C 217.363281 131.867188 216.605469 133.339844 215.773438 134.804688 C 214.050781 137.699219 212.339844 140.730469 210.367188 143.664062 C 208.5 146.664062 206.355469 149.550781 204.296875 152.484375 C 202.089844 155.320312 199.964844 158.207031 197.648438 160.867188 C 195.421875 163.609375 193.03125 166.128906 190.78125 168.617188 C 189.628906 169.835938 188.445312 170.992188 187.316406 172.144531 C 186.1875 173.300781 185.066406 174.414062 183.921875 175.445312 C 182.800781 176.492188 181.703125 177.507812 180.648438 178.496094 C 179.578125 179.46875 178.496094 180.355469 177.480469 181.234375 C 176.460938 182.101562 175.484375 182.933594 174.550781 183.71875 C 173.597656 184.476562 172.6875 185.1875 171.835938 185.855469 C 170.144531 187.203125 168.644531 188.363281 167.34375 189.269531 C 165.886719 190.308594 164.800781 191.089844 164.128906 191.582031 C 162.265625 188.609375 160.550781 185.640625 159.03125 182.65625 C 172.894531 170.851562 184.683594 158.832031 196.167969 144.550781 C 208.082031 129.726562 216.699219 112.148438 218.742188 93.230469 C 219.882812 82.6875 218.503906 72.953125 213.152344 63.800781 C 209.929688 58.273438 205.949219 53.644531 200.996094 50.570312 C 178.371094 34.648438 115.613281 49.636719 68.257812 92.453125 C 40.457031 117.589844 7.152344 154.042969 6.367188 184.96875 C 6.089844 195.738281 9.824219 205.082031 17.464844 212.730469 C 23.609375 218.886719 34.523438 221.832031 47.957031 221.832031 C 68.839844 221.832031 95.792969 214.691406 120.347656 201.425781 L 120.574219 202.617188 C 120.925781 204.425781 121.257812 206.253906 121.640625 208.070312 C 122.109375 209.847656 122.578125 211.632812 123.050781 213.429688 C 123.539062 215.21875 124.164062 216.96875 124.722656 218.757812 L 125.148438 220.097656 L 125.261719 220.429688 L 125.390625 220.789062 L 125.632812 221.445312 L 126.605469 224.058594 L 127.578125 226.683594 C 127.917969 227.5625 128.3125 228.441406 128.679688 229.328125 C 129.441406 231.078125 130.132812 232.886719 130.984375 234.601562 C 132.496094 237.886719 134.144531 241.140625 135.90625 244.363281 C 135.546875 244.480469 135.140625 244.625 134.613281 244.800781 C 133.046875 245.332031 130.746094 246.105469 127.800781 247.035156 C 124.867188 247.992188 121.261719 249.007812 117.132812 250.183594 C 112.996094 251.320312 108.304688 252.511719 103.144531 253.585938 C 97.980469 254.628906 92.371094 255.683594 86.390625 256.378906 C 84.894531 256.554688 83.378906 256.679688 81.84375 256.839844 C 80.308594 256.941406 78.753906 257.042969 77.179688 257.152344 C 75.613281 257.179688 74.058594 257.257812 72.441406 257.261719 C 70.839844 257.238281 69.101562 257.257812 67.5625 257.1875 C 61.0625 256.964844 54.359375 255.964844 47.777344 254.121094 C 41.203125 252.273438 34.753906 249.539062 28.882812 245.863281 C 23.019531 242.179688 17.765625 237.523438 13.65625 232.105469 C 9.5625 226.675781 6.566406 220.554688 4.753906 214.28125 C 2.949219 208.003906 2.21875 201.648438 2.289062 195.636719 C 2.371094 189.636719 3.296875 183.933594 4.574219 178.832031 C 7.183594 168.574219 11.347656 160.640625 14.472656 155.324219 C 16.035156 152.648438 17.402344 150.625 18.332031 149.246094 C 19.28125 147.882812 19.789062 147.15625 19.789062 147.15625 C 19.789062 147.15625 19.25 147.859375 18.238281 149.179688 C 17.242188 150.515625 15.789062 152.480469 14.105469 155.09375 C 10.769531 160.320312 6.296875 168.140625 3.265625 178.472656 C 1.75 183.640625 0.707031 189.386719 0.449219 195.585938 C 0.21875 201.761719 0.800781 208.335938 2.515625 214.90625 C 4.238281 221.453125 7.167969 227.992188 11.402344 233.785156 C 15.65625 239.566406 21.117188 244.542969 27.207031 248.492188 C 33.304688 252.441406 40 255.386719 46.828125 257.421875 C 53.660156 259.4375 60.625 260.589844 67.40625 260.914062 C 69.1875 261.027344 70.746094 260.972656 72.40625 261.003906 C 74.054688 260.992188 75.726562 260.910156 77.359375 260.863281 C 78.976562 260.75 80.578125 260.644531 82.160156 260.53125 C 83.738281 260.367188 85.292969 260.230469 86.824219 260.046875 C 92.945312 259.289062 98.691406 258.300781 103.90625 257.03125 C 109.125 255.796875 113.855469 254.464844 118.015625 253.195312 C 122.175781 251.925781 125.734375 250.628906 128.664062 249.550781 C 131.589844 248.457031 133.867188 247.574219 135.40625 246.914062 C 136.074219 246.632812 136.578125 246.421875 136.96875 246.261719 C 142.480469 256.03125 149.082031 265.4375 156.664062 274.1875 C 167.304688 286.308594 179.800781 297.082031 193.761719 305.789062 C 197.246094 307.855469 200.65625 309.988281 204.199219 311.992188 L 209.546875 314.964844 L 212.21875 316.441406 L 214.9375 317.816406 L 220.367188 320.546875 C 222.167969 321.46875 224.039062 322.25 225.871094 323.101562 C 227.714844 323.929688 229.535156 324.792969 231.386719 325.589844 C 233.253906 326.339844 235.121094 327.089844 236.984375 327.84375 C 244.421875 330.863281 252.023438 333.292969 259.59375 335.4375 C 261.484375 336.003906 263.410156 336.378906 265.308594 336.851562 C 267.234375 337.308594 269.144531 337.761719 271.054688 338.210938 C 274.855469 338.859375 278.570312 339.621094 282.472656 339.949219 C 286.320312 340.480469 290.125 340.5 293.898438 340.699219 C 295.789062 340.664062 297.664062 340.628906 299.539062 340.59375 C 300.472656 340.5625 301.40625 340.578125 302.332031 340.503906 C 303.257812 340.417969 304.1875 340.332031 305.105469 340.25 C 312.5 339.769531 319.632812 338.152344 326.378906 336.070312 C 328.046875 335.480469 329.699219 334.890625 331.347656 334.308594 L 331.960938 334.089844 L 332.113281 334.035156 L 332.296875 333.953125 L 332.59375 333.824219 L 333.761719 333.304688 C 334.535156 332.945312 335.308594 332.648438 336.089844 332.230469 C 339.246094 330.703125 342.101562 328.921875 344.875 327.054688 C 350.300781 323.183594 355.066406 318.78125 358.929688 313.96875 C 362.808594 309.175781 365.960938 304.125 368.246094 298.992188 C 370.5625 293.859375 372.046875 288.75 372.949219 283.824219 C 374.726562 273.988281 374.152344 265.1875 372.816406 258.207031 " fill-opacity="1" fill-rule="nonzero"/></g><path fill="#100f0d" d="M 300.292969 322.847656 C 296.40625 322.628906 292.03125 322.199219 287.292969 321.570312 C 282.546875 320.941406 277.453125 319.992188 272.105469 318.832031 C 266.757812 317.667969 261.183594 316.144531 255.488281 314.382812 C 249.785156 312.628906 243.992188 310.511719 238.214844 308.121094 C 232.4375 305.734375 226.664062 303.015625 221.136719 299.992188 C 218.304688 298.445312 215.652344 296.816406 212.90625 295.203125 C 210.25 293.496094 207.570312 291.828125 205.03125 290.011719 C 199.902344 286.441406 194.996094 282.710938 190.453125 278.84375 C 185.886719 275.007812 181.660156 271.074219 177.769531 267.21875 C 176.800781 266.25 175.847656 265.289062 174.914062 264.34375 C 174 263.371094 173.109375 262.410156 172.226562 261.472656 C 170.425781 259.617188 168.804688 257.722656 167.199219 255.945312 C 165.613281 254.152344 164.167969 252.363281 162.75 250.699219 C 161.375 248.992188 160.070312 247.378906 158.847656 245.863281 C 156.480469 242.753906 154.410156 240.046875 152.792969 237.761719 C 151.128906 235.496094 149.890625 233.65625 149.027344 232.421875 C 148.167969 231.1875 147.710938 230.523438 147.710938 230.523438 C 147.710938 230.523438 148.097656 231.226562 148.828125 232.550781 C 149.5625 233.863281 150.578125 235.828125 152.066406 238.230469 C 153.492188 240.667969 155.332031 243.558594 157.511719 246.832031 C 158.632812 248.453125 159.832031 250.167969 161.09375 251.980469 C 162.429688 253.738281 163.792969 255.625 165.292969 257.523438 C 168.300781 261.328125 171.636719 265.398438 175.46875 269.445312 C 177.328125 271.523438 179.382812 273.507812 181.421875 275.613281 C 183.5625 277.605469 185.695312 279.707031 188.003906 281.683594 C 190.253906 283.734375 192.664062 285.679688 195.078125 287.671875 C 197.554688 289.585938 200.054688 291.542969 202.699219 293.351562 C 205.285156 295.230469 208.007812 296.957031 210.71875 298.730469 C 213.472656 300.390625 216.289062 302.128906 219.121094 303.628906 C 224.886719 306.730469 230.769531 309.441406 236.703125 311.84375 C 242.648438 314.1875 248.605469 316.195312 254.453125 317.859375 C 260.289062 319.550781 266.035156 320.808594 271.507812 321.820312 C 276.976562 322.835938 282.207031 323.480469 287.039062 323.890625 C 291.875 324.308594 296.324219 324.421875 300.257812 324.394531 C 304.195312 324.375 307.621094 324.117188 310.429688 323.875 C 313.238281 323.617188 315.429688 323.28125 316.921875 323.050781 C 318.40625 322.804688 319.199219 322.671875 319.199219 322.671875 C 319.199219 322.671875 318.398438 322.730469 316.894531 322.835938 C 315.394531 322.9375 313.1875 323.019531 310.382812 323.070312 C 307.582031 323.101562 304.1875 323.054688 300.292969 322.847656 " fill-opacity="1" fill-rule="nonzero"/><path fill="#100f0d" d="M 128.039062 180.046875 C 128.527344 177.890625 128.882812 175.707031 129.492188 173.617188 C 129.984375 171.492188 130.726562 169.480469 131.347656 167.503906 C 131.726562 166.535156 132.09375 165.582031 132.460938 164.652344 C 132.632812 164.1875 132.8125 163.726562 132.984375 163.273438 C 133.183594 162.824219 133.378906 162.382812 133.574219 161.945312 C 133.957031 161.074219 134.332031 160.226562 134.695312 159.410156 C 135.101562 158.609375 135.496094 157.835938 135.875 157.097656 C 136.609375 155.601562 137.375 154.289062 138.046875 153.113281 C 138.707031 151.925781 139.3125 150.910156 139.863281 150.105469 C 140.914062 148.453125 141.511719 147.515625 141.511719 147.515625 C 141.511719 147.515625 140.828125 148.390625 139.625 149.933594 C 139.011719 150.695312 138.328125 151.660156 137.578125 152.804688 C 137.195312 153.371094 136.785156 153.976562 136.359375 154.609375 C 135.941406 155.257812 135.5625 155.96875 135.132812 156.691406 C 134.71875 157.421875 134.285156 158.183594 133.839844 158.976562 C 133.429688 159.789062 133.011719 160.625 132.578125 161.488281 C 131.65625 163.191406 130.980469 165.125 130.164062 167.066406 C 129.496094 169.066406 128.714844 171.109375 128.175781 173.257812 C 127.527344 175.378906 127.105469 177.597656 126.664062 179.800781 C 126.363281 182.035156 125.984375 184.257812 125.875 186.472656 C 125.644531 188.679688 125.675781 190.863281 125.625 192.972656 C 125.644531 194.023438 125.730469 195.0625 125.777344 196.078125 C 125.808594 196.578125 125.832031 197.082031 125.863281 197.574219 C 125.917969 198.070312 125.976562 198.554688 126.03125 199.035156 C 126.144531 199.996094 126.257812 200.925781 126.359375 201.824219 C 126.496094 202.722656 126.667969 203.585938 126.8125 204.414062 C 127.0625 206.078125 127.460938 207.570312 127.808594 208.886719 C 128.128906 210.214844 128.445312 211.359375 128.773438 212.285156 C 129.390625 214.140625 129.742188 215.203125 129.742188 215.203125 C 129.742188 215.203125 129.480469 214.113281 129.027344 212.214844 C 128.765625 211.277344 128.527344 210.121094 128.296875 208.78125 C 128.167969 208.117188 128.042969 207.40625 127.898438 206.65625 C 127.773438 205.910156 127.695312 205.113281 127.574219 204.292969 C 127.464844 203.464844 127.328125 202.609375 127.230469 201.714844 C 127.164062 200.824219 127.09375 199.898438 127.023438 198.949219 C 126.816406 197.054688 126.917969 195.039062 126.84375 192.964844 C 126.917969 190.898438 126.914062 188.746094 127.175781 186.585938 C 127.3125 184.410156 127.714844 182.234375 128.039062 180.046875 " fill-opacity="1" fill-rule="nonzero"/><path fill="#100f0d" d="M 362.9375 287.738281 C 362.734375 287.96875 362.535156 288.203125 362.316406 288.433594 C 359.308594 291.703125 354.867188 294.976562 349.148438 297.316406 C 343.429688 299.6875 336.472656 300.992188 328.882812 301.101562 C 321.277344 301.21875 313.054688 300.039062 304.558594 297.976562 C 296.074219 295.859375 287.210938 293.144531 278.277344 289.765625 C 269.324219 286.441406 260.269531 282.476562 251.34375 277.894531 C 242.433594 273.296875 233.648438 268.109375 225.222656 262.382812 C 216.796875 256.65625 208.734375 250.398438 201.136719 243.859375 C 193.535156 237.320312 186.472656 230.394531 180.039062 223.335938 C 176.804688 219.816406 173.78125 216.21875 170.863281 212.667969 C 168.015625 209.101562 165.214844 205.492188 162.648438 201.980469 C 157.496094 194.917969 153.175781 187.824219 150.363281 180.761719 C 147.542969 173.714844 146.25 166.761719 146.460938 160.601562 C 146.625 154.429688 148.117188 149.128906 150 145.113281 C 151.882812 141.078125 154.144531 138.324219 155.792969 136.601562 C 156.632812 135.75 157.3125 135.132812 157.785156 134.734375 C 158.265625 134.339844 158.511719 134.136719 158.511719 134.136719 C 158.511719 134.136719 158.253906 134.328125 157.761719 134.703125 C 157.265625 135.074219 156.558594 135.664062 155.667969 136.480469 C 153.941406 138.136719 151.511719 140.800781 149.46875 144.859375 C 147.417969 148.871094 145.707031 154.226562 145.324219 160.550781 C 144.851562 166.878906 146.082031 174.097656 148.816406 181.367188 C 151.546875 188.664062 155.808594 195.992188 160.875 203.25 C 165.925781 210.496094 171.785156 217.800781 178.226562 224.980469 C 184.679688 232.15625 191.761719 239.199219 199.398438 245.867188 C 204.597656 250.453125 210.105469 254.800781 215.789062 258.945312 C 215.714844 258.898438 215.636719 258.847656 215.558594 258.800781 C 232.660156 271.855469 247.753906 282.6875 267.378906 291.492188 C 287.007812 300.300781 308.308594 306.210938 329.816406 306.082031 C 338.933594 306.027344 348.847656 304.035156 356.820312 299.59375 C 364.75 295.175781 369.476562 285.632812 369.554688 276.546875 C 369.554688 276.542969 369.5625 276.53125 369.5625 276.53125 C 369.5625 276.53125 369.554688 276.542969 369.554688 276.542969 C 369.554688 276.5 369.5625 276.453125 369.5625 276.410156 C 367.898438 280.46875 365.683594 284.347656 362.9375 287.738281 " fill-opacity="1" fill-rule="nonzero"/><path fill="#100f0d" d="M 256.867188 183.640625 C 259.136719 185.1875 261.710938 186.902344 264.527344 188.761719 C 267.320312 190.664062 270.269531 192.828125 273.421875 195.0625 C 275.023438 196.148438 276.546875 197.425781 278.171875 198.648438 C 279.777344 199.878906 281.425781 201.140625 283.097656 202.417969 C 286.394531 205.035156 289.65625 207.929688 293.042969 210.769531 C 294.636719 212.296875 296.246094 213.839844 297.859375 215.382812 C 299.441406 216.964844 301.191406 218.390625 302.65625 220.089844 C 304.1875 221.734375 305.710938 223.378906 307.230469 225.019531 C 307.980469 225.847656 308.765625 226.640625 309.480469 227.488281 C 310.175781 228.355469 310.863281 229.222656 311.554688 230.085938 C 312.929688 231.820312 314.296875 233.53125 315.644531 235.222656 C 317.011719 236.875 318.191406 238.703125 319.445312 240.402344 C 321.875 243.855469 324.175781 247.195312 326.199219 250.488281 C 327.273438 252.097656 328.160156 253.753906 329.074219 255.328125 C 329.523438 256.113281 329.964844 256.890625 330.398438 257.652344 C 330.792969 258.433594 331.179688 259.203125 331.558594 259.953125 C 333.140625 262.933594 334.332031 265.785156 335.425781 268.296875 C 336.429688 270.84375 337.164062 273.125 337.828125 274.984375 C 338.851562 278.789062 339.433594 280.964844 339.433594 280.964844 C 339.433594 280.964844 338.960938 278.757812 338.128906 274.890625 C 337.542969 273.011719 336.894531 270.6875 335.984375 268.082031 C 334.976562 265.519531 333.929688 262.574219 332.390625 259.542969 C 332.027344 258.773438 331.65625 257.988281 331.277344 257.191406 C 330.859375 256.414062 330.429688 255.625 329.996094 254.816406 C 329.117188 253.207031 328.257812 251.515625 327.226562 249.867188 C 325.257812 246.515625 323.039062 243.042969 320.640625 239.554688 C 319.390625 237.835938 318.257812 236.035156 316.863281 234.316406 C 315.515625 232.59375 314.148438 230.855469 312.773438 229.097656 C 312.082031 228.21875 311.394531 227.335938 310.699219 226.449219 C 309.988281 225.582031 309.195312 224.78125 308.445312 223.9375 C 306.921875 222.273438 305.394531 220.597656 303.863281 218.921875 C 302.386719 217.199219 300.664062 215.71875 299.042969 214.148438 C 297.394531 212.605469 295.757812 211.066406 294.136719 209.542969 C 290.695312 206.707031 287.386719 203.828125 284.039062 201.214844 C 280.628906 198.703125 277.417969 196.144531 274.1875 193.988281 C 270.957031 191.832031 267.9375 189.75 265.085938 187.914062 C 262.210938 186.121094 259.574219 184.480469 257.222656 183.054688 C 254.882812 181.621094 252.773438 180.472656 251.074219 179.46875 C 247.644531 177.519531 245.683594 176.40625 245.683594 176.40625 C 245.683594 176.40625 247.574219 177.632812 250.890625 179.777344 C 252.542969 180.851562 254.59375 182.097656 256.867188 183.640625 " fill-opacity="1" fill-rule="nonzero"/></svg>