<svg xmlns="http://www.w3.org/2000/svg" xmlns:xlink="http://www.w3.org/1999/xlink" width="500" zoomAndPan="magnify" viewBox="0 0 375 374.999991" height="500" preserveAspectRatio="xMidYMid meet" version="1.0"><defs><clipPath id="ca7248d7fe"><path d="M 39 6.722656 L 335 6.722656 L 335 363 L 39 363 Z M 39 6.722656 " clip-rule="nonzero"/></clipPath></defs><path fill="#000000" d="M 307.652344 336.363281 C 318.90625 344.800781 257.726562 352.933594 265.261719 343.953125 C 255.804688 355.574219 321.546875 347.074219 307.652344 336.363281 Z M 307.652344 336.363281 " fill-opacity="1" fill-rule="nonzero"/><g clip-path="url(#ca7248d7fe)"><path fill="#000000" d="M 334.78125 339.003906 C 332.300781 332.5 324.207031 334.800781 318.820312 334.222656 C 296.414062 333.855469 287.207031 309.746094 284.992188 290.644531 C 280.980469 269.179688 276.503906 245.753906 272.945312 224.371094 C 263.417969 177.523438 292.703125 198.566406 292.449219 140.117188 C 290.570312 102.445312 277.667969 66.34375 265.804688 30.863281 C 263.519531 25.171875 261.691406 18.660156 258.363281 13.734375 C 248.835938 11.535156 238.71875 14.839844 229.332031 16.746094 C 238.605469 15.699219 248.554688 13.03125 257.703125 15.28125 C 245.59375 22.820312 230.160156 24.351562 216.277344 26.742188 C 185.125 30.171875 219.867188 18.75 229.332031 16.730469 C 190.191406 25.273438 214.390625 25.347656 174.414062 15.074219 C 182.949219 18.007812 191.523438 20.792969 199.875 24.183594 C 182.332031 20.078125 165.058594 15.042969 148.058594 9.085938 C 156.921875 10.726562 165.652344 12.96875 174.414062 15.074219 C 164.675781 11.953125 154.914062 8.5625 144.78125 6.941406 C 144.046875 7.03125 143.371094 6.722656 142.992188 7.675781 C 127.03125 44.339844 112.082031 82.148438 104.613281 121.699219 C 92.984375 166.0625 125.929688 187.214844 111.226562 229.3125 C 103.058594 250.785156 92.71875 324.300781 65.609375 323.609375 C 59.445312 325.019531 43.058594 321.867188 40.074219 326 C 35.464844 335.996094 58.277344 338.929688 64.390625 341.996094 C 83.378906 348.316406 102.839844 354.035156 122.808594 356.152344 C 130.402344 357.5625 137.15625 352.582031 129.207031 346.535156 C 120.675781 342.433594 112.347656 337.976562 105.960938 330.839844 C 96.707031 306.285156 107.867188 277.644531 114.980469 253.320312 C 122.917969 233.609375 125.351562 210.242188 139.546875 193.875 C 149.859375 184.050781 164.003906 176.585938 170.988281 163.339844 C 190.152344 129.257812 194.355469 89.28125 200.945312 51.363281 C 204.03125 91.445312 204.875 153.882812 234.851562 183.152344 C 251.261719 196.464844 255.59375 198.347656 259.722656 220.199219 C 264.539062 243.3125 267.46875 267.023438 271.871094 290.292969 C 274.070312 303.183594 276.496094 316.769531 273.003906 329.582031 C 269.816406 340.140625 258.554688 344.898438 249.257812 348.917969 C 246.328125 349.714844 242.96875 350.191406 241.503906 353.316406 C 241.378906 368.195312 270.703125 360.003906 280 359.863281 C 290.84375 357.957031 337.117188 353.777344 334.78125 339.003906 Z M 197.886719 57.429688 C 189.304688 95.769531 184.742188 150.273438 154.046875 177.433594 C 145.300781 184.167969 135.71875 190.515625 130 200.355469 C 122.601562 217.15625 117.910156 235.0625 112.273438 252.507812 C 104.480469 277.730469 97.382812 304.824219 104.363281 331.046875 C 110.226562 338.605469 118.292969 343.972656 126.730469 348.210938 C 128.492188 349.105469 129.808594 350.046875 129.75 351.996094 C 125.351562 355.347656 112.890625 350.949219 107.214844 350.207031 C 89.664062 346.480469 72.246094 340.859375 55.164062 335.292969 C 52.171875 333.90625 41.019531 331.734375 42.699219 327.496094 C 50.34375 325.648438 59.5625 327.085938 67.539062 325.453125 C 95.492188 315.136719 98.550781 275.898438 108.183594 251.320312 C 125.625 198.664062 118.542969 201.558594 106.144531 151.777344 C 104.429688 131.0625 110.292969 110.246094 115.359375 90.277344 C 123.371094 62.773438 132.617188 35.539062 143.84375 9.144531 C 160.511719 16.550781 178.4375 21.035156 196.128906 25.320312 C 198.328125 26.050781 201.128906 25.320312 201.40625 27.863281 C 201.871094 35.839844 199.605469 49.5625 197.886719 57.449219 Z M 204.246094 70.070312 C 202.515625 56.320312 202.632812 42.457031 202.558594 28.617188 C 219.492188 30.460938 244.457031 25.605469 258.921875 16.578125 C 268.3125 40.078125 274.382812 64.921875 280.976562 89.3125 C 268.898438 87.417969 256.523438 88.011719 244.316406 88.070312 C 256.261719 88.546875 268.335938 88.394531 280.160156 90.273438 C 256.269531 92.480469 232.375 92.480469 208.484375 90.273438 C 220.308594 88.421875 232.375 88.570312 244.316406 88.070312 C 231.957031 88.429688 218.476562 86.554688 206.664062 89.957031 C 205.785156 83.355469 204.976562 76.734375 204.246094 70.09375 Z M 332.050781 341.539062 C 332.828125 351.070312 224.105469 368.0625 247.273438 351.730469 C 259.734375 347.925781 272.726562 339.265625 275.359375 325.613281 C 278.964844 297.925781 269.910156 270.414062 267.183594 242.953125 C 257.082031 150.339844 222.59375 222.832031 206.789062 90.742188 C 224.949219 94.664062 244.449219 92.839844 263.058594 92.839844 C 268.535156 92.574219 274.054688 92.441406 279.449219 91.589844 C 282.507812 90.125 281.765625 94.027344 282.625 96.121094 C 288.613281 125.292969 296.0625 161.382812 275.199219 186.316406 C 272.691406 189.246094 269.648438 192.421875 268.839844 196.410156 C 264.78125 220.816406 274.566406 245.144531 278.078125 269.144531 C 282.75 287.09375 283.0625 307.414062 294.523438 322.769531 C 300.644531 328.949219 308.730469 334.316406 317.359375 335.90625 C 321.664062 337.167969 333.269531 334.390625 332.050781 341.539062 Z M 332.050781 341.539062 " fill-opacity="1" fill-rule="nonzero"/></g><path fill="#000000" d="M 279.597656 176.589844 C 285.511719 169.84375 288.09375 160.402344 287.660156 151.558594 C 287.808594 175.410156 263.886719 191.351562 242.632812 179.253906 C 231.210938 172.351562 225.929688 159.335938 219.847656 147.929688 C 224.742188 160.035156 229.90625 173.722656 241.5625 181.035156 C 253.246094 188.207031 269.984375 186.476562 279.597656 176.589844 Z M 279.597656 176.589844 " fill-opacity="1" fill-rule="nonzero"/><path fill="#000000" d="M 218.503906 30.738281 C 229.28125 29.703125 240.5 27.953125 249.933594 22.28125 C 236.671875 27.894531 221.929688 30.136719 207.601562 30.605469 C 211.195312 31.242188 214.890625 30.957031 218.503906 30.738281 Z M 218.503906 30.738281 " fill-opacity="1" fill-rule="nonzero"/><path fill="#000000" d="M 192.765625 71.691406 C 181.363281 69.21875 169.304688 70.222656 157.667969 70.179688 C 168.90625 70.648438 180.269531 70.503906 191.394531 72.378906 C 168.925781 74.585938 146.460938 74.585938 123.996094 72.378906 C 135.097656 70.523438 146.464844 70.6875 157.683594 70.179688 C 152.367188 70.589844 122.882812 68.457031 122.359375 72.855469 C 139.4375 76.683594 157.800781 74.960938 175.300781 74.917969 C 177.824219 74.402344 194.890625 75.136719 192.765625 71.691406 Z M 192.765625 71.691406 " fill-opacity="1" fill-rule="nonzero"/><path fill="#000000" d="M 94.722656 340.871094 C 87.390625 338.277344 66.511719 334.273438 63.320312 328.046875 C 61.996094 334.824219 119.179688 352.382812 110.578125 338.527344 C 114.832031 346.335938 98.226562 341.519531 94.722656 340.871094 Z M 94.722656 340.871094 " fill-opacity="1" fill-rule="nonzero"/><path fill="#000000" d="M 100.476562 337.042969 C 91.679688 335.988281 80.5 333.957031 74.355469 327.511719 C 77.589844 334.023438 95.617188 339.675781 102.214844 336.554688 C 101.699219 336.941406 101.121094 337.105469 100.476562 337.042969 Z M 100.476562 337.042969 " fill-opacity="1" fill-rule="nonzero"/><path fill="#000000" d="M 170.925781 21.25 C 178.019531 23.363281 185.25 24.777344 192.617188 25.488281 C 178.335938 22.019531 164.253906 17.941406 150.335938 13.21875 C 156.9375 16.570312 163.800781 19.246094 170.925781 21.25 Z M 170.925781 21.25 " fill-opacity="1" fill-rule="nonzero"/><path fill="#000000" d="M 166.503906 158.941406 C 154.253906 181.410156 119.515625 187.863281 110.492188 159.433594 C 104.863281 139.09375 110.667969 117.535156 114.984375 97.429688 C 109.53125 120.238281 100.175781 147.980469 114.039062 169.398438 C 125.527344 185.316406 149.230469 181.671875 160.910156 167.933594 C 170.828125 157.546875 174.382812 143.242188 178.503906 129.925781 C 174.933594 139.757812 172.074219 149.988281 166.503906 158.941406 Z M 166.503906 158.941406 " fill-opacity="1" fill-rule="nonzero"/><path fill="#000000" d="M 241.515625 108.441406 C 244.089844 109.527344 244.375 104.988281 241.722656 105.714844 C 241.433594 105.800781 241.191406 105.964844 241.003906 106.199219 C 240.8125 106.4375 240.707031 106.707031 240.683594 107.007812 C 240.664062 107.308594 240.726562 107.589844 240.878906 107.855469 C 241.03125 108.117188 241.242188 108.3125 241.515625 108.441406 Z M 241.515625 108.441406 " fill-opacity="1" fill-rule="nonzero"/><path fill="#000000" d="M 238.429688 119.265625 C 240.675781 119.226562 240.085938 115.707031 237.96875 116.398438 C 237.621094 116.507812 237.351562 116.714844 237.15625 117.027344 C 236.964844 117.335938 236.898438 117.671875 236.957031 118.03125 C 237.011719 118.390625 237.183594 118.691406 237.464844 118.925781 C 237.742188 119.15625 238.066406 119.273438 238.429688 119.265625 Z M 238.429688 119.265625 " fill-opacity="1" fill-rule="nonzero"/><path fill="#000000" d="M 246.789062 120.65625 C 248.496094 120.65625 248.0625 117.914062 246.429688 118.457031 C 246.175781 118.554688 245.980469 118.71875 245.84375 118.953125 C 245.710938 119.1875 245.664062 119.4375 245.707031 119.707031 C 245.75 119.972656 245.875 120.195312 246.078125 120.375 C 246.28125 120.554688 246.519531 120.648438 246.789062 120.65625 Z M 246.789062 120.65625 " fill-opacity="1" fill-rule="nonzero"/><path fill="#000000" d="M 244.371094 128.914062 C 244.574219 129.015625 244.789062 129.050781 245.015625 129.019531 C 245.238281 128.992188 245.4375 128.902344 245.609375 128.75 C 245.78125 128.601562 245.898438 128.417969 245.957031 128.195312 C 246.015625 127.976562 246.011719 127.757812 245.9375 127.542969 C 245.152344 125.578125 242.542969 127.867188 244.371094 128.914062 Z M 244.371094 128.914062 " fill-opacity="1" fill-rule="nonzero"/><path fill="#000000" d="M 259.597656 151.996094 C 258.1875 152.421875 258.929688 154.636719 260.328125 154.132812 C 261.730469 153.625 260.976562 151.492188 259.597656 151.996094 Z M 259.597656 151.996094 " fill-opacity="1" fill-rule="nonzero"/><path fill="#000000" d="M 264.246094 164.53125 C 264.101562 164.578125 263.972656 164.652344 263.859375 164.753906 C 263.75 164.851562 263.660156 164.96875 263.59375 165.105469 C 263.527344 165.238281 263.488281 165.382812 263.476562 165.535156 C 263.46875 165.683594 263.488281 165.832031 263.535156 165.972656 C 263.585938 166.117188 263.660156 166.242188 263.757812 166.355469 C 263.855469 166.46875 263.976562 166.558594 264.109375 166.628906 C 264.246094 166.695312 264.386719 166.730469 264.539062 166.742188 C 264.6875 166.753906 264.835938 166.734375 264.976562 166.683594 C 265.121094 166.636719 265.25 166.5625 265.359375 166.460938 C 265.472656 166.363281 265.5625 166.246094 265.628906 166.109375 C 265.695312 165.972656 265.734375 165.832031 265.746094 165.679688 C 265.753906 165.53125 265.734375 165.382812 265.6875 165.242188 C 265.636719 165.097656 265.5625 164.972656 265.464844 164.859375 C 265.363281 164.746094 265.246094 164.652344 265.113281 164.585938 C 264.976562 164.519531 264.835938 164.480469 264.683594 164.472656 C 264.535156 164.460938 264.386719 164.480469 264.246094 164.53125 Z M 264.246094 164.53125 " fill-opacity="1" fill-rule="nonzero"/><path fill="#000000" d="M 261.3125 175.59375 C 261.078125 175.476562 260.839844 175.457031 260.589844 175.539062 C 260.34375 175.617188 260.160156 175.777344 260.039062 176.007812 C 259.921875 176.242188 259.902344 176.480469 259.984375 176.730469 C 260.066406 176.980469 260.222656 177.164062 260.453125 177.28125 C 260.6875 177.398438 260.925781 177.417969 261.175781 177.335938 C 261.425781 177.257812 261.609375 177.097656 261.726562 176.867188 C 261.84375 176.632812 261.863281 176.394531 261.78125 176.144531 C 261.703125 175.894531 261.542969 175.710938 261.3125 175.59375 Z M 261.3125 175.59375 " fill-opacity="1" fill-rule="nonzero"/><path fill="#000000" d="M 264.539062 143.023438 C 266.261719 143.023438 265.828125 140.28125 264.191406 140.824219 C 263.949219 140.921875 263.757812 141.089844 263.628906 141.320312 C 263.5 141.550781 263.453125 141.796875 263.496094 142.058594 C 263.535156 142.320312 263.652344 142.542969 263.847656 142.722656 C 264.042969 142.902344 264.273438 143.003906 264.539062 143.023438 Z M 264.539062 143.023438 " fill-opacity="1" fill-rule="nonzero"/><path fill="#000000" d="M 239.539062 130.402344 C 238.261719 129.667969 237.199219 131.789062 238.527344 132.414062 C 239.851562 133.035156 240.871094 131.011719 239.539062 130.402344 Z M 239.539062 130.402344 " fill-opacity="1" fill-rule="nonzero"/><path fill="#000000" d="M 240.675781 141.328125 C 240.878906 141.425781 241.09375 141.457031 241.320312 141.425781 C 241.542969 141.394531 241.742188 141.304688 241.914062 141.15625 C 242.085938 141.011719 242.203125 140.828125 242.265625 140.609375 C 242.332031 140.390625 242.328125 140.175781 242.265625 139.957031 C 241.464844 137.992188 238.878906 140.28125 240.675781 141.328125 Z M 240.675781 141.328125 " fill-opacity="1" fill-rule="nonzero"/><path fill="#000000" d="M 247.28125 147.519531 C 245.621094 146.742188 244.949219 149.644531 246.78125 149.667969 C 247.042969 149.660156 247.273438 149.578125 247.476562 149.414062 C 247.679688 149.25 247.8125 149.039062 247.871094 148.785156 C 247.929688 148.53125 247.902344 148.285156 247.792969 148.050781 C 247.683594 147.8125 247.511719 147.636719 247.28125 147.519531 Z M 247.28125 147.519531 " fill-opacity="1" fill-rule="nonzero"/><path fill="#000000" d="M 259.664062 142.699219 C 259.246094 141.292969 257.023438 142.03125 257.523438 143.433594 C 257.570312 143.574219 257.644531 143.703125 257.742188 143.816406 C 257.84375 143.925781 257.960938 144.015625 258.09375 144.082031 C 258.230469 144.148438 258.371094 144.1875 258.519531 144.195312 C 258.671875 144.203125 258.816406 144.183594 258.957031 144.136719 C 259.101562 144.085938 259.226562 144.015625 259.339844 143.914062 C 259.453125 143.816406 259.542969 143.699219 259.609375 143.5625 C 259.671875 143.429688 259.710938 143.289062 259.722656 143.136719 C 259.730469 142.988281 259.710938 142.84375 259.664062 142.699219 Z M 259.664062 142.699219 " fill-opacity="1" fill-rule="nonzero"/><path fill="#000000" d="M 249.75 162.5 C 251.699219 163.371094 251.949219 159.859375 249.90625 160.421875 C 249.691406 160.5 249.515625 160.625 249.378906 160.804688 C 249.242188 160.984375 249.167969 161.1875 249.152344 161.410156 C 249.132812 161.636719 249.179688 161.847656 249.289062 162.042969 C 249.398438 162.242188 249.550781 162.390625 249.75 162.5 Z M 249.75 162.5 " fill-opacity="1" fill-rule="nonzero"/><path fill="#000000" d="M 255.863281 109.175781 C 258.0625 109.175781 257.507812 105.589844 255.394531 106.300781 C 253.804688 106.761719 254.273438 109.226562 255.863281 109.175781 Z M 255.863281 109.175781 " fill-opacity="1" fill-rule="nonzero"/><path fill="#000000" d="M 250.527344 118.398438 C 252.214844 119.273438 253.554688 116.597656 251.847656 115.761719 C 250.140625 114.925781 248.78125 117.613281 250.527344 118.398438 Z M 250.527344 118.398438 " fill-opacity="1" fill-rule="nonzero"/><path fill="#000000" d="M 257.976562 120.597656 C 259.289062 121.28125 260.328125 119.199219 258.988281 118.582031 C 258.710938 118.460938 258.433594 118.449219 258.148438 118.550781 C 257.863281 118.652344 257.652344 118.835938 257.519531 119.109375 C 257.382812 119.378906 257.359375 119.65625 257.449219 119.945312 C 257.535156 120.234375 257.714844 120.453125 257.976562 120.597656 Z M 257.976562 120.597656 " fill-opacity="1" fill-rule="nonzero"/><path fill="#000000" d="M 249.808594 135.167969 C 250.015625 135.269531 250.230469 135.304688 250.453125 135.273438 C 250.679688 135.242188 250.878906 135.15625 251.050781 135.007812 C 251.222656 134.859375 251.339844 134.675781 251.402344 134.457031 C 251.46875 134.242188 251.464844 134.023438 251.398438 133.804688 C 250.609375 131.832031 247.96875 134.121094 249.808594 135.167969 Z M 249.808594 135.167969 " fill-opacity="1" fill-rule="nonzero"/><path fill="#000000" d="M 225.519531 112.597656 C 227.242188 112.597656 226.804688 109.871094 225.160156 110.398438 C 224.90625 110.496094 224.714844 110.660156 224.578125 110.894531 C 224.441406 111.128906 224.394531 111.378906 224.4375 111.648438 C 224.484375 111.914062 224.605469 112.136719 224.808594 112.316406 C 225.011719 112.496094 225.25 112.589844 225.519531 112.597656 Z M 225.519531 112.597656 " fill-opacity="1" fill-rule="nonzero"/><path fill="#000000" d="M 256.597656 170.679688 C 256.363281 170.5625 256.125 170.546875 255.875 170.628906 C 255.625 170.710938 255.445312 170.871094 255.324219 171.101562 C 255.207031 171.335938 255.191406 171.578125 255.273438 171.828125 C 255.355469 172.074219 255.515625 172.257812 255.746094 172.375 C 255.980469 172.492188 256.222656 172.511719 256.472656 172.429688 C 256.71875 172.34375 256.902344 172.1875 257.019531 171.953125 C 257.136719 171.71875 257.15625 171.480469 257.070312 171.230469 C 256.988281 170.980469 256.832031 170.800781 256.597656 170.679688 Z M 256.597656 170.679688 " fill-opacity="1" fill-rule="nonzero"/><path fill="#000000" d="M 232.71875 114.851562 C 232.925781 114.949219 233.140625 114.988281 233.363281 114.957031 C 233.589844 114.929688 233.789062 114.84375 233.960938 114.695312 C 234.136719 114.546875 234.253906 114.367188 234.320312 114.148438 C 234.382812 113.929688 234.382812 113.710938 234.316406 113.492188 C 233.539062 111.507812 230.894531 113.789062 232.71875 114.851562 Z M 232.71875 114.851562 " fill-opacity="1" fill-rule="nonzero"/><path fill="#000000" d="M 258.5625 127.703125 C 257.164062 128.128906 257.910156 130.359375 259.296875 129.851562 C 259.4375 129.804688 259.566406 129.730469 259.679688 129.628906 C 259.792969 129.53125 259.878906 129.414062 259.945312 129.277344 C 260.011719 129.144531 260.050781 129 260.058594 128.851562 C 260.070312 128.703125 260.050781 128.554688 260 128.414062 C 259.953125 128.269531 259.878906 128.144531 259.78125 128.03125 C 259.679688 127.917969 259.5625 127.828125 259.429688 127.761719 C 259.292969 127.695312 259.152344 127.65625 259 127.648438 C 258.851562 127.636719 258.707031 127.65625 258.5625 127.703125 Z M 258.5625 127.703125 " fill-opacity="1" fill-rule="nonzero"/><path fill="#000000" d="M 240.5 113.375 C 242.207031 113.375 241.757812 110.621094 240.144531 111.175781 C 239.886719 111.265625 239.683594 111.425781 239.539062 111.664062 C 239.398438 111.898438 239.347656 112.152344 239.390625 112.425781 C 239.433594 112.699219 239.5625 112.925781 239.769531 113.105469 C 239.980469 113.285156 240.222656 113.375 240.5 113.375 Z M 240.5 113.375 " fill-opacity="1" fill-rule="nonzero"/><path fill="#000000" d="M 252.492188 149.796875 C 252.933594 151.214844 255.125 150.449219 254.640625 149.066406 C 254.527344 148.785156 254.335938 148.582031 254.058594 148.453125 C 253.785156 148.328125 253.503906 148.3125 253.21875 148.410156 C 252.933594 148.507812 252.71875 148.691406 252.578125 148.960938 C 252.4375 149.226562 252.410156 149.507812 252.492188 149.796875 Z M 252.492188 149.796875 " fill-opacity="1" fill-rule="nonzero"/><path fill="#000000" d="M 257.148438 155.164062 C 257.097656 155.023438 257.023438 154.894531 256.925781 154.78125 C 256.824219 154.667969 256.707031 154.578125 256.574219 154.511719 C 256.4375 154.445312 256.292969 154.40625 256.144531 154.398438 C 255.992188 154.386719 255.847656 154.40625 255.703125 154.457031 C 255.5625 154.503906 255.433594 154.578125 255.320312 154.675781 C 255.207031 154.777344 255.117188 154.894531 255.050781 155.03125 C 254.984375 155.164062 254.945312 155.308594 254.933594 155.457031 C 254.925781 155.609375 254.945312 155.757812 254.992188 155.898438 C 255.460938 157.261719 257.632812 156.53125 257.148438 155.164062 Z M 257.148438 155.164062 " fill-opacity="1" fill-rule="nonzero"/><path fill="#000000" d="M 260.871094 161.917969 C 261.296875 163.335938 263.496094 162.578125 263.019531 161.1875 C 262.972656 161.042969 262.898438 160.917969 262.796875 160.804688 C 262.699219 160.691406 262.582031 160.601562 262.445312 160.535156 C 262.3125 160.46875 262.167969 160.433594 262.019531 160.421875 C 261.867188 160.414062 261.722656 160.433594 261.582031 160.480469 C 261.4375 160.53125 261.3125 160.601562 261.199219 160.703125 C 261.085938 160.800781 260.996094 160.917969 260.929688 161.054688 C 260.863281 161.1875 260.824219 161.332031 260.816406 161.480469 C 260.804688 161.628906 260.824219 161.777344 260.871094 161.917969 Z M 260.871094 161.917969 " fill-opacity="1" fill-rule="nonzero"/><path fill="#000000" d="M 155.601562 96.460938 C 153.796875 95.835938 152.824219 98.660156 154.679688 99.269531 C 156.53125 99.878906 157.40625 97.039062 155.601562 96.460938 Z M 155.601562 96.460938 " fill-opacity="1" fill-rule="nonzero"/><path fill="#000000" d="M 160.277344 109 C 160.929688 107.195312 158.078125 106.25 157.476562 108.074219 C 156.878906 109.902344 159.699219 110.847656 160.277344 109 Z M 160.277344 109 " fill-opacity="1" fill-rule="nonzero"/><path fill="#000000" d="M 150.902344 109.203125 C 150.761719 109.15625 150.617188 109.136719 150.464844 109.144531 C 150.316406 109.15625 150.175781 109.191406 150.042969 109.257812 C 149.90625 109.324219 149.789062 109.414062 149.691406 109.527344 C 149.59375 109.636719 149.519531 109.765625 149.472656 109.90625 C 149.421875 110.046875 149.402344 110.191406 149.410156 110.339844 C 149.421875 110.488281 149.457031 110.632812 149.523438 110.765625 C 149.589844 110.902344 149.679688 111.015625 149.789062 111.117188 C 149.902344 111.214844 150.027344 111.289062 150.167969 111.339844 C 151.546875 111.84375 152.300781 109.601562 150.902344 109.203125 Z M 150.902344 109.203125 " fill-opacity="1" fill-rule="nonzero"/><path fill="#000000" d="M 152.089844 119.71875 C 153.476562 120.203125 154.207031 117.996094 152.824219 117.570312 C 152.679688 117.523438 152.535156 117.503906 152.382812 117.511719 C 152.234375 117.523438 152.09375 117.5625 151.957031 117.628906 C 151.820312 117.695312 151.703125 117.785156 151.605469 117.894531 C 151.507812 118.007812 151.433594 118.136719 151.382812 118.277344 C 151.335938 118.421875 151.316406 118.566406 151.324219 118.71875 C 151.335938 118.867188 151.371094 119.011719 151.4375 119.144531 C 151.503906 119.28125 151.59375 119.398438 151.707031 119.496094 C 151.820312 119.597656 151.949219 119.671875 152.089844 119.71875 Z M 152.089844 119.71875 " fill-opacity="1" fill-rule="nonzero"/><path fill="#000000" d="M 136.296875 143.460938 C 135.808594 144.832031 138.007812 145.558594 138.445312 144.195312 C 138.886719 142.832031 136.707031 142.054688 136.296875 143.460938 Z M 136.296875 143.460938 " fill-opacity="1" fill-rule="nonzero"/><path fill="#000000" d="M 131.714844 156.851562 C 131.820312 157.054688 131.972656 157.210938 132.167969 157.320312 C 132.367188 157.433594 132.578125 157.480469 132.804688 157.464844 C 133.03125 157.449219 133.234375 157.371094 133.414062 157.234375 C 133.59375 157.09375 133.722656 156.917969 133.796875 156.707031 C 134.355469 154.644531 130.867188 154.917969 131.714844 156.851562 Z M 131.714844 156.851562 " fill-opacity="1" fill-rule="nonzero"/><path fill="#000000" d="M 136.730469 166.246094 C 136.484375 166.164062 136.242188 166.179688 136.007812 166.300781 C 135.777344 166.417969 135.617188 166.597656 135.535156 166.847656 C 135.453125 167.09375 135.472656 167.335938 135.589844 167.570312 C 135.707031 167.800781 135.890625 167.960938 136.136719 168.042969 C 136.382812 168.125 136.625 168.105469 136.859375 167.988281 C 137.089844 167.871094 137.25 167.6875 137.332031 167.441406 C 137.414062 167.191406 137.394531 166.953125 137.277344 166.71875 C 137.160156 166.484375 136.976562 166.328125 136.730469 166.246094 Z M 136.730469 166.246094 " fill-opacity="1" fill-rule="nonzero"/><path fill="#000000" d="M 132.414062 133.695312 C 133.789062 134.207031 134.539062 131.972656 133.144531 131.546875 C 132.855469 131.464844 132.574219 131.492188 132.308594 131.632812 C 132.039062 131.773438 131.855469 131.988281 131.757812 132.273438 C 131.660156 132.558594 131.675781 132.839844 131.800781 133.113281 C 131.929688 133.390625 132.132812 133.582031 132.414062 133.695312 Z M 132.414062 133.695312 " fill-opacity="1" fill-rule="nonzero"/><path fill="#000000" d="M 157.925781 123.21875 C 158.066406 123.257812 158.207031 123.273438 158.351562 123.257812 C 158.496094 123.246094 158.632812 123.203125 158.761719 123.136719 C 158.890625 123.070312 159.003906 122.984375 159.097656 122.871094 C 159.195312 122.761719 159.265625 122.636719 159.3125 122.5 C 159.359375 122.363281 159.378906 122.222656 159.371094 122.078125 C 159.367188 121.929688 159.332031 121.792969 159.269531 121.660156 C 159.210938 121.527344 159.125 121.414062 159.019531 121.3125 C 158.914062 121.214844 158.792969 121.136719 158.660156 121.082031 C 157.257812 120.597656 156.519531 122.800781 157.925781 123.21875 Z M 157.925781 123.21875 " fill-opacity="1" fill-rule="nonzero"/><path fill="#000000" d="M 156.480469 129.984375 C 156.339844 129.9375 156.191406 129.917969 156.042969 129.925781 C 155.890625 129.9375 155.75 129.972656 155.613281 130.039062 C 155.480469 130.105469 155.363281 130.195312 155.261719 130.308594 C 155.164062 130.421875 155.089844 130.550781 155.039062 130.691406 C 154.992188 130.835938 154.972656 130.980469 154.980469 131.132812 C 154.992188 131.28125 155.03125 131.425781 155.097656 131.558594 C 155.164062 131.695312 155.253906 131.8125 155.363281 131.910156 C 155.476562 132.011719 155.605469 132.085938 155.75 132.132812 C 155.890625 132.183594 156.035156 132.203125 156.1875 132.191406 C 156.335938 132.183594 156.480469 132.144531 156.613281 132.078125 C 156.75 132.011719 156.867188 131.921875 156.964844 131.808594 C 157.066406 131.695312 157.140625 131.570312 157.1875 131.425781 C 157.238281 131.285156 157.257812 131.136719 157.246094 130.988281 C 157.238281 130.835938 157.199219 130.695312 157.132812 130.558594 C 157.066406 130.425781 156.976562 130.308594 156.863281 130.207031 C 156.75 130.109375 156.625 130.035156 156.480469 129.984375 Z M 156.480469 129.984375 " fill-opacity="1" fill-rule="nonzero"/><path fill="#000000" d="M 150.902344 138.199219 C 150.757812 138.148438 150.613281 138.128906 150.460938 138.140625 C 150.3125 138.148438 150.167969 138.1875 150.035156 138.253906 C 149.898438 138.320312 149.78125 138.414062 149.683594 138.527344 C 149.582031 138.640625 149.507812 138.765625 149.460938 138.910156 C 149.410156 139.050781 149.390625 139.199219 149.402344 139.347656 C 149.410156 139.5 149.449219 139.644531 149.515625 139.777344 C 149.582031 139.914062 149.671875 140.03125 149.785156 140.128906 C 149.898438 140.230469 150.027344 140.304688 150.167969 140.355469 C 150.3125 140.402344 150.457031 140.421875 150.609375 140.410156 C 150.757812 140.402344 150.902344 140.363281 151.039062 140.296875 C 151.171875 140.230469 151.289062 140.140625 151.390625 140.027344 C 151.488281 139.914062 151.5625 139.785156 151.609375 139.640625 C 151.660156 139.5 151.679688 139.351562 151.667969 139.203125 C 151.660156 139.050781 151.621094 138.910156 151.554688 138.773438 C 151.488281 138.636719 151.398438 138.519531 151.285156 138.421875 C 151.171875 138.320312 151.042969 138.246094 150.902344 138.199219 Z M 150.902344 138.199219 " fill-opacity="1" fill-rule="nonzero"/><path fill="#000000" d="M 139.078125 132.71875 C 138.933594 132.671875 138.789062 132.652344 138.636719 132.664062 C 138.488281 132.671875 138.34375 132.710938 138.207031 132.777344 C 138.074219 132.84375 137.957031 132.933594 137.855469 133.046875 C 137.757812 133.160156 137.683594 133.289062 137.632812 133.433594 C 137.585938 133.574219 137.566406 133.722656 137.578125 133.871094 C 137.585938 134.023438 137.625 134.164062 137.691406 134.300781 C 137.757812 134.4375 137.847656 134.554688 137.960938 134.652344 C 138.074219 134.753906 138.199219 134.828125 138.34375 134.875 C 138.488281 134.925781 138.632812 134.945312 138.785156 134.933594 C 138.933594 134.921875 139.078125 134.886719 139.210938 134.820312 C 139.347656 134.75 139.464844 134.660156 139.5625 134.546875 C 139.664062 134.433594 139.738281 134.308594 139.785156 134.164062 C 139.835938 134.019531 139.855469 133.875 139.84375 133.722656 C 139.835938 133.574219 139.796875 133.429688 139.730469 133.296875 C 139.664062 133.160156 139.574219 133.042969 139.460938 132.941406 C 139.347656 132.84375 139.21875 132.769531 139.078125 132.71875 Z M 139.078125 132.71875 " fill-opacity="1" fill-rule="nonzero"/><path fill="#000000" d="M 147.414062 151.160156 C 147.269531 151.113281 147.125 151.09375 146.972656 151.105469 C 146.824219 151.113281 146.683594 151.152344 146.546875 151.21875 C 146.410156 151.285156 146.296875 151.375 146.195312 151.488281 C 146.097656 151.601562 146.023438 151.726562 145.972656 151.871094 C 145.925781 152.011719 145.90625 152.160156 145.914062 152.308594 C 145.925781 152.457031 145.960938 152.601562 146.027344 152.734375 C 146.09375 152.871094 146.183594 152.988281 146.296875 153.085938 C 146.410156 153.1875 146.539062 153.261719 146.679688 153.308594 C 148.078125 153.78125 148.8125 151.59375 147.414062 151.160156 Z M 147.414062 151.160156 " fill-opacity="1" fill-rule="nonzero"/><path fill="#000000" d="M 141.921875 97.046875 C 140.132812 96.386719 139.171875 99.246094 140.996094 99.832031 C 142.824219 100.417969 143.769531 97.597656 141.921875 97.046875 Z M 141.921875 97.046875 " fill-opacity="1" fill-rule="nonzero"/><path fill="#000000" d="M 146.605469 106.449219 C 144.800781 105.824219 143.84375 108.648438 145.675781 109.242188 C 147.507812 109.835938 148.410156 107.011719 146.605469 106.449219 Z M 146.605469 106.449219 " fill-opacity="1" fill-rule="nonzero"/><path fill="#000000" d="M 139.839844 109.828125 C 139.195312 108.507812 137.125 109.5625 137.816406 110.847656 C 137.96875 111.101562 138.1875 111.269531 138.472656 111.347656 C 138.757812 111.429688 139.035156 111.40625 139.296875 111.273438 C 139.5625 111.140625 139.746094 110.933594 139.851562 110.65625 C 139.953125 110.378906 139.949219 110.101562 139.839844 109.828125 Z M 139.839844 109.828125 " fill-opacity="1" fill-rule="nonzero"/><path fill="#000000" d="M 147.347656 123.824219 C 147.203125 123.777344 147.058594 123.757812 146.90625 123.769531 C 146.757812 123.777344 146.617188 123.816406 146.480469 123.882812 C 146.347656 123.949219 146.230469 124.039062 146.128906 124.152344 C 146.03125 124.265625 145.957031 124.390625 145.90625 124.535156 C 145.859375 124.675781 145.839844 124.824219 145.847656 124.972656 C 145.859375 125.121094 145.898438 125.265625 145.964844 125.398438 C 146.027344 125.535156 146.117188 125.652344 146.230469 125.75 C 146.34375 125.851562 146.472656 125.925781 146.613281 125.972656 C 146.753906 126.023438 146.902344 126.042969 147.050781 126.03125 C 147.203125 126.023438 147.34375 125.984375 147.480469 125.917969 C 147.613281 125.851562 147.730469 125.761719 147.828125 125.648438 C 147.929688 125.535156 148.003906 125.40625 148.050781 125.265625 C 148.101562 125.125 148.121094 124.976562 148.109375 124.828125 C 148.101562 124.675781 148.0625 124.535156 147.996094 124.398438 C 147.929688 124.265625 147.839844 124.148438 147.730469 124.046875 C 147.617188 123.949219 147.488281 123.875 147.347656 123.824219 Z M 147.347656 123.824219 " fill-opacity="1" fill-rule="nonzero"/><path fill="#000000" d="M 171.429688 103.285156 C 171.574219 103.335938 171.71875 103.355469 171.867188 103.34375 C 172.019531 103.335938 172.160156 103.296875 172.296875 103.230469 C 172.433594 103.164062 172.550781 103.074219 172.648438 102.960938 C 172.746094 102.847656 172.820312 102.722656 172.871094 102.578125 C 172.917969 102.4375 172.9375 102.289062 172.929688 102.140625 C 172.917969 101.988281 172.882812 101.847656 172.816406 101.710938 C 172.75 101.578125 172.660156 101.460938 172.546875 101.359375 C 172.433594 101.261719 172.304688 101.1875 172.164062 101.136719 C 172.019531 101.089844 171.875 101.070312 171.722656 101.078125 C 171.574219 101.089844 171.429688 101.128906 171.296875 101.195312 C 171.160156 101.261719 171.042969 101.351562 170.945312 101.464844 C 170.84375 101.574219 170.769531 101.703125 170.722656 101.847656 C 170.671875 101.988281 170.65625 102.136719 170.664062 102.285156 C 170.671875 102.433594 170.710938 102.578125 170.777344 102.714844 C 170.84375 102.847656 170.933594 102.964844 171.046875 103.066406 C 171.160156 103.164062 171.289062 103.238281 171.429688 103.285156 Z M 171.429688 103.285156 " fill-opacity="1" fill-rule="nonzero"/><path fill="#000000" d="M 141.445312 161.382812 C 141.207031 161.324219 140.980469 161.355469 140.765625 161.476562 C 140.550781 161.59375 140.402344 161.773438 140.324219 162.003906 C 140.246094 162.238281 140.257812 162.46875 140.359375 162.691406 C 140.460938 162.914062 140.625 163.074219 140.851562 163.171875 C 141.089844 163.230469 141.316406 163.199219 141.53125 163.082031 C 141.746094 162.960938 141.894531 162.785156 141.96875 162.550781 C 142.046875 162.316406 142.035156 162.089844 141.933594 161.863281 C 141.835938 161.640625 141.671875 161.480469 141.445312 161.382812 Z M 141.445312 161.382812 " fill-opacity="1" fill-rule="nonzero"/><path fill="#000000" d="M 164.097656 105.714844 C 164.375 105.710938 164.617188 105.621094 164.828125 105.441406 C 165.035156 105.261719 165.164062 105.035156 165.207031 104.761719 C 165.25 104.492188 165.199219 104.238281 165.058594 104 C 164.914062 103.765625 164.710938 103.601562 164.449219 103.515625 C 162.808594 103 162.359375 105.707031 164.097656 105.714844 Z M 164.097656 105.714844 " fill-opacity="1" fill-rule="nonzero"/><path fill="#000000" d="M 137.316406 119.167969 C 137.269531 119.3125 137.253906 119.457031 137.265625 119.605469 C 137.277344 119.757812 137.316406 119.898438 137.386719 120.03125 C 137.453125 120.164062 137.546875 120.28125 137.660156 120.375 C 137.773438 120.472656 137.902344 120.546875 138.042969 120.589844 C 138.1875 120.636719 138.332031 120.65625 138.480469 120.644531 C 138.628906 120.632812 138.769531 120.589844 138.90625 120.523438 C 139.039062 120.457031 139.152344 120.363281 139.25 120.25 C 139.347656 120.136719 139.417969 120.007812 139.464844 119.867188 C 139.957031 118.472656 137.75 117.769531 137.316406 119.167969 Z M 137.316406 119.167969 " fill-opacity="1" fill-rule="nonzero"/><path fill="#000000" d="M 157.171875 101.914062 C 155.808594 101.402344 155.066406 103.640625 156.4375 104.058594 C 157.808594 104.476562 158.601562 102.320312 157.171875 101.914062 Z M 157.171875 101.914062 " fill-opacity="1" fill-rule="nonzero"/><path fill="#000000" d="M 144.105469 139.101562 C 143.960938 139.050781 143.8125 139.03125 143.65625 139.042969 C 143.503906 139.054688 143.359375 139.09375 143.222656 139.164062 C 143.082031 139.230469 142.964844 139.324219 142.863281 139.441406 C 142.761719 139.554688 142.6875 139.6875 142.640625 139.832031 C 142.589844 139.980469 142.574219 140.128906 142.582031 140.28125 C 142.59375 140.433594 142.632812 140.582031 142.703125 140.71875 C 142.769531 140.855469 142.863281 140.976562 142.980469 141.074219 C 143.097656 141.175781 143.226562 141.25 143.371094 141.300781 C 143.519531 141.347656 143.667969 141.367188 143.820312 141.355469 C 143.976562 141.34375 144.121094 141.304688 144.257812 141.238281 C 144.394531 141.167969 144.515625 141.074219 144.613281 140.960938 C 144.714844 140.84375 144.789062 140.710938 144.839844 140.566406 C 144.886719 140.421875 144.90625 140.269531 144.894531 140.117188 C 144.886719 139.964844 144.84375 139.820312 144.777344 139.679688 C 144.707031 139.542969 144.613281 139.425781 144.5 139.324219 C 144.382812 139.222656 144.25 139.148438 144.105469 139.101562 Z M 144.105469 139.101562 " fill-opacity="1" fill-rule="nonzero"/><path fill="#000000" d="M 142.324219 146.609375 C 142.390625 146.320312 142.351562 146.046875 142.207031 145.789062 C 142.0625 145.53125 141.847656 145.359375 141.566406 145.265625 C 141.285156 145.175781 141.011719 145.191406 140.742188 145.316406 C 140.472656 145.441406 140.28125 145.636719 140.167969 145.910156 C 140.101562 146.199219 140.140625 146.472656 140.285156 146.730469 C 140.429688 146.988281 140.644531 147.164062 140.925781 147.253906 C 141.207031 147.34375 141.484375 147.328125 141.75 147.203125 C 142.019531 147.078125 142.210938 146.882812 142.324219 146.609375 Z M 142.324219 146.609375 " fill-opacity="1" fill-rule="nonzero"/><path fill="#000000" d="M 135.703125 151.234375 C 134.324219 150.742188 133.601562 152.929688 134.972656 153.382812 C 136.34375 153.839844 137.121094 151.652344 135.703125 151.234375 Z M 135.703125 151.234375 " fill-opacity="1" fill-rule="nonzero"/></svg>